<svg xmlns="http://www.w3.org/2000/svg" xmlns:xlink="http://www.w3.org/1999/xlink" width="600" zoomAndPan="magnify" viewBox="0 0 450 449.999984" height="600" preserveAspectRatio="xMidYMid meet" version="1.0"><defs><g/><clipPath id="986918805b"><rect x="0" width="381" y="0" height="429"/></clipPath></defs><rect x="-45" width="540" fill="#ffffff" y="-44.999998" height="539.99998" fill-opacity="1"/><rect x="-45" width="540" fill="#ffffff" y="-44.999998" height="539.99998" fill-opacity="1"/><g transform="matrix(1, 0, 0, 1, 35, 21)"><g clip-path="url(#986918805b)"><g fill="#1f3a5f" fill-opacity="1"><g transform="translate(0.512557, 314.311013)"><g><path d="M 60.09375 0 L 60.09375 -155.140625 L 7.359375 -155.140625 L 7.359375 -199.296875 L 165.5625 -199.296875 L 165.5625 -155.140625 L 112.828125 -155.140625 L 112.828125 0 Z M 60.09375 0 "/></g></g></g><g fill="#1f3a5f" fill-opacity="1"><g transform="translate(173.439914, 314.311013)"><g><path d="M 103.640625 3.671875 C 89.734375 3.671875 77.566406 1.734375 67.140625 -2.140625 C 56.722656 -6.023438 48.085938 -11.953125 41.234375 -19.921875 C 34.390625 -27.898438 29.28125 -37.96875 25.90625 -50.125 C 22.53125 -62.289062 20.84375 -76.648438 20.84375 -93.203125 L 20.84375 -199.296875 L 73.59375 -199.296875 L 73.59375 -87.078125 C 73.59375 -76.035156 74.664062 -67.191406 76.8125 -60.546875 C 78.957031 -53.910156 82.222656 -49.109375 86.609375 -46.140625 C 91.003906 -43.179688 96.679688 -41.703125 103.640625 -41.703125 C 110.585938 -41.703125 116.304688 -43.179688 120.796875 -46.140625 C 125.296875 -49.109375 128.671875 -53.910156 130.921875 -60.546875 C 133.171875 -67.191406 134.296875 -76.035156 134.296875 -87.078125 L 134.296875 -199.296875 L 185.1875 -199.296875 L 185.1875 -93.203125 C 185.1875 -76.648438 183.550781 -62.289062 180.28125 -50.125 C 177.007812 -37.96875 172.050781 -27.898438 165.40625 -19.921875 C 158.769531 -11.953125 150.289062 -6.023438 139.96875 -2.140625 C 129.644531 1.734375 117.535156 3.671875 103.640625 3.671875 Z M 103.640625 3.671875 "/></g></g></g></g></g></svg>