<svg xmlns="http://www.w3.org/2000/svg" xmlns:xlink="http://www.w3.org/1999/xlink" width="600" zoomAndPan="magnify" viewBox="0 0 450 449.999984" height="600" preserveAspectRatio="xMidYMid meet" version="1.0"><defs><g/><clipPath id="8a0f9f2690"><rect x="0" width="395" y="0" height="186"/></clipPath></defs><rect x="-45" width="540" fill="#ffffff" y="-44.999998" height="539.99998" fill-opacity="1"/><rect x="-45" width="540" fill="#000000" y="-44.999998" height="539.99998" fill-opacity="1"/><g transform="matrix(1, 0, 0, 1, 29, 129)"><g clip-path="url(#8a0f9f2690)"><g fill="#ffffff" fill-opacity="1"><g transform="translate(0.597478, 133.678773)"><g><path d="M 26.4375 0 L 26.4375 -68.4375 L 3.234375 -68.4375 L 3.234375 -84.515625 L 68.828125 -84.515625 L 68.828125 -68.4375 L 45.625 -68.4375 L 45.625 0 Z M 26.4375 0 "/></g></g></g><g fill="#ffffff" fill-opacity="1"><g transform="translate(74.609217, 133.678773)"><g><path d="M 43.296875 1.5625 C 37.765625 1.5625 32.898438 0.804688 28.703125 -0.703125 C 24.515625 -2.222656 20.992188 -4.601562 18.140625 -7.84375 C 15.296875 -11.082031 13.140625 -15.207031 11.671875 -20.21875 C 10.203125 -25.226562 9.46875 -31.191406 9.46875 -38.109375 L 9.46875 -84.515625 L 28.640625 -84.515625 L 28.640625 -36.171875 C 28.640625 -30.898438 29.203125 -26.726562 30.328125 -23.65625 C 31.453125 -20.59375 33.09375 -18.367188 35.25 -16.984375 C 37.414062 -15.597656 40.097656 -14.90625 43.296875 -14.90625 C 46.410156 -14.90625 49.085938 -15.597656 51.328125 -16.984375 C 53.578125 -18.367188 55.285156 -20.59375 56.453125 -23.65625 C 57.617188 -26.726562 58.203125 -30.898438 58.203125 -36.171875 L 58.203125 -84.515625 L 76.609375 -84.515625 L 76.609375 -38.109375 C 76.609375 -31.191406 75.894531 -25.226562 74.46875 -20.21875 C 73.039062 -15.207031 70.921875 -11.082031 68.109375 -7.84375 C 65.304688 -4.601562 61.832031 -2.222656 57.6875 -0.703125 C 53.539062 0.804688 48.742188 1.5625 43.296875 1.5625 Z M 43.296875 1.5625 "/></g></g></g><g fill="#ffffff" fill-opacity="1"><g transform="translate(161.193738, 133.678773)"><g><path d="M -0.78125 0 L 25.671875 -84.515625 L 48.484375 -84.515625 L 75.046875 0 L 54.828125 0 L 43.8125 -42.78125 C 42.601562 -47.007812 41.4375 -51.5 40.3125 -56.25 C 39.1875 -61.007812 38.0625 -65.59375 36.9375 -70 L 36.421875 -70 C 35.472656 -65.59375 34.4375 -61.007812 33.3125 -56.25 C 32.1875 -51.5 31.019531 -47.007812 29.8125 -42.78125 L 18.671875 0 Z M 16.59375 -20.09375 L 16.59375 -35 L 57.296875 -35 L 57.296875 -20.09375 Z M 16.59375 -20.09375 "/></g></g></g><g fill="#ffffff" fill-opacity="1"><g transform="translate(237.408976, 133.678773)"><g><path d="M 9.984375 0 L 9.984375 -84.515625 L 29.03125 -84.515625 L 29.03125 0 Z M 9.984375 0 "/></g></g></g><g fill="#ffffff" fill-opacity="1"><g transform="translate(278.368249, 133.678773)"><g><path d="M 26.4375 0 L 26.4375 -68.4375 L 3.234375 -68.4375 L 3.234375 -84.515625 L 68.828125 -84.515625 L 68.828125 -68.4375 L 45.625 -68.4375 L 45.625 0 Z M 26.4375 0 "/></g></g></g><g fill="#ffffff" fill-opacity="1"><g transform="translate(352.379977, 133.678773)"><g><path d="M 9.984375 0 L 9.984375 -84.515625 L 29.03125 -84.515625 L 29.03125 0 Z M 9.984375 0 "/></g></g></g></g></g><g fill="#ffffff" fill-opacity="1"><g transform="translate(156.621089, 297.473648)"><g><path d="M 5.203125 0 L 5.203125 -13.453125 L 0.640625 -13.453125 L 0.640625 -15.09375 L 11.6875 -15.09375 L 11.6875 -13.453125 L 7.125 -13.453125 L 7.125 0 Z M 5.203125 0 "/></g></g></g><g fill="#ffffff" fill-opacity="1"><g transform="translate(167.427263, 297.473648)"><g><path d="M 6.421875 0.28125 C 5.421875 0.28125 4.507812 0.046875 3.6875 -0.421875 C 2.875 -0.890625 2.226562 -1.554688 1.75 -2.421875 C 1.269531 -3.285156 1.03125 -4.34375 1.03125 -5.59375 C 1.03125 -6.800781 1.273438 -7.84375 1.765625 -8.71875 C 2.253906 -9.59375 2.882812 -10.265625 3.65625 -10.734375 C 4.425781 -11.210938 5.238281 -11.453125 6.09375 -11.453125 C 7.039062 -11.453125 7.847656 -11.234375 8.515625 -10.796875 C 9.179688 -10.359375 9.679688 -9.75 10.015625 -8.96875 C 10.359375 -8.1875 10.53125 -7.265625 10.53125 -6.203125 C 10.53125 -6.003906 10.523438 -5.8125 10.515625 -5.625 C 10.515625 -5.445312 10.488281 -5.265625 10.4375 -5.078125 L 2.390625 -5.078125 L 2.390625 -6.578125 L 8.828125 -6.578125 C 8.828125 -7.648438 8.59375 -8.472656 8.125 -9.046875 C 7.65625 -9.617188 6.988281 -9.90625 6.125 -9.90625 C 5.613281 -9.90625 5.113281 -9.765625 4.625 -9.484375 C 4.132812 -9.203125 3.726562 -8.742188 3.40625 -8.109375 C 3.09375 -7.484375 2.9375 -6.648438 2.9375 -5.609375 C 2.9375 -4.660156 3.101562 -3.863281 3.4375 -3.21875 C 3.769531 -2.570312 4.21875 -2.082031 4.78125 -1.75 C 5.351562 -1.425781 5.972656 -1.265625 6.640625 -1.265625 C 7.179688 -1.265625 7.6875 -1.335938 8.15625 -1.484375 C 8.625 -1.640625 9.050781 -1.847656 9.4375 -2.109375 L 10.125 -0.875 C 9.632812 -0.539062 9.082031 -0.265625 8.46875 -0.046875 C 7.863281 0.171875 7.179688 0.28125 6.421875 0.28125 Z M 6.421875 0.28125 "/></g></g></g><g fill="#ffffff" fill-opacity="1"><g transform="translate(178.831425, 297.473648)"><g><path d="M 6.328125 0.28125 C 5.328125 0.28125 4.425781 0.0507812 3.625 -0.40625 C 2.832031 -0.875 2.207031 -1.539062 1.75 -2.40625 C 1.289062 -3.28125 1.0625 -4.332031 1.0625 -5.5625 C 1.0625 -6.820312 1.304688 -7.890625 1.796875 -8.765625 C 2.296875 -9.640625 2.957031 -10.304688 3.78125 -10.765625 C 4.601562 -11.222656 5.488281 -11.453125 6.4375 -11.453125 C 7.175781 -11.453125 7.804688 -11.328125 8.328125 -11.078125 C 8.859375 -10.835938 9.316406 -10.523438 9.703125 -10.140625 L 8.765625 -8.96875 C 8.484375 -9.25 8.15625 -9.46875 7.78125 -9.625 C 7.40625 -9.78125 6.984375 -9.859375 6.515625 -9.859375 C 5.847656 -9.859375 5.25 -9.675781 4.71875 -9.3125 C 4.195312 -8.957031 3.78125 -8.457031 3.46875 -7.8125 C 3.164062 -7.175781 3.015625 -6.425781 3.015625 -5.5625 C 3.015625 -4.71875 3.160156 -3.972656 3.453125 -3.328125 C 3.742188 -2.691406 4.148438 -2.191406 4.671875 -1.828125 C 5.191406 -1.460938 5.796875 -1.28125 6.484375 -1.28125 C 7.003906 -1.28125 7.488281 -1.378906 7.9375 -1.578125 C 8.382812 -1.785156 8.765625 -2.039062 9.078125 -2.34375 L 9.90625 -1.203125 C 9.4375 -0.753906 8.898438 -0.394531 8.296875 -0.125 C 7.703125 0.144531 7.046875 0.28125 6.328125 0.28125 Z M 6.328125 0.28125 "/></g></g></g><g fill="#ffffff" fill-opacity="1"><g transform="translate(189.315895, 297.473648)"><g><path d="M 1.890625 0 L 1.890625 -16.375 L 3.765625 -16.375 L 3.765625 -11.90625 L 3.703125 -9.609375 C 4.242188 -10.117188 4.804688 -10.550781 5.390625 -10.90625 C 5.984375 -11.269531 6.660156 -11.453125 7.421875 -11.453125 C 8.609375 -11.453125 9.472656 -11.078125 10.015625 -10.328125 C 10.554688 -9.585938 10.828125 -8.503906 10.828125 -7.078125 L 10.828125 0 L 8.953125 0 L 8.953125 -6.828125 C 8.953125 -7.890625 8.785156 -8.65625 8.453125 -9.125 C 8.117188 -9.59375 7.578125 -9.828125 6.828125 -9.828125 C 6.265625 -9.828125 5.753906 -9.679688 5.296875 -9.390625 C 4.847656 -9.097656 4.335938 -8.664062 3.765625 -8.09375 L 3.765625 0 Z M 1.890625 0 "/></g></g></g><g fill="#ffffff" fill-opacity="1"><g transform="translate(201.82368, 297.473648)"><g><path d="M 1.890625 0 L 1.890625 -11.171875 L 3.453125 -11.171875 L 3.609375 -9.5625 L 3.6875 -9.5625 C 4.21875 -10.101562 4.78125 -10.550781 5.375 -10.90625 C 5.976562 -11.269531 6.660156 -11.453125 7.421875 -11.453125 C 8.609375 -11.453125 9.472656 -11.078125 10.015625 -10.328125 C 10.554688 -9.585938 10.828125 -8.503906 10.828125 -7.078125 L 10.828125 0 L 8.953125 0 L 8.953125 -6.828125 C 8.953125 -7.890625 8.785156 -8.65625 8.453125 -9.125 C 8.117188 -9.59375 7.578125 -9.828125 6.828125 -9.828125 C 6.265625 -9.828125 5.753906 -9.679688 5.296875 -9.390625 C 4.847656 -9.097656 4.335938 -8.664062 3.765625 -8.09375 L 3.765625 0 Z M 1.890625 0 "/></g></g></g><g fill="#ffffff" fill-opacity="1"><g transform="translate(214.400438, 297.473648)"><g><path d="M 6.234375 0.28125 C 5.328125 0.28125 4.476562 0.0507812 3.6875 -0.40625 C 2.894531 -0.875 2.257812 -1.539062 1.78125 -2.40625 C 1.300781 -3.28125 1.0625 -4.332031 1.0625 -5.5625 C 1.0625 -6.820312 1.300781 -7.890625 1.78125 -8.765625 C 2.257812 -9.640625 2.894531 -10.304688 3.6875 -10.765625 C 4.476562 -11.222656 5.328125 -11.453125 6.234375 -11.453125 C 7.148438 -11.453125 8 -11.222656 8.78125 -10.765625 C 9.5625 -10.304688 10.191406 -9.640625 10.671875 -8.765625 C 11.160156 -7.890625 11.40625 -6.820312 11.40625 -5.5625 C 11.40625 -4.332031 11.160156 -3.28125 10.671875 -2.40625 C 10.191406 -1.539062 9.5625 -0.875 8.78125 -0.40625 C 8 0.0507812 7.148438 0.28125 6.234375 0.28125 Z M 6.234375 -1.28125 C 6.878906 -1.28125 7.445312 -1.460938 7.9375 -1.828125 C 8.425781 -2.191406 8.800781 -2.691406 9.0625 -3.328125 C 9.320312 -3.972656 9.453125 -4.71875 9.453125 -5.5625 C 9.453125 -6.425781 9.320312 -7.179688 9.0625 -7.828125 C 8.800781 -8.484375 8.425781 -8.988281 7.9375 -9.34375 C 7.445312 -9.707031 6.878906 -9.890625 6.234375 -9.890625 C 5.585938 -9.890625 5.019531 -9.707031 4.53125 -9.34375 C 4.050781 -8.988281 3.675781 -8.484375 3.40625 -7.828125 C 3.144531 -7.179688 3.015625 -6.425781 3.015625 -5.5625 C 3.015625 -4.71875 3.144531 -3.972656 3.40625 -3.328125 C 3.675781 -2.691406 4.050781 -2.191406 4.53125 -1.828125 C 5.019531 -1.460938 5.585938 -1.28125 6.234375 -1.28125 Z M 6.234375 -1.28125 "/></g></g></g><g fill="#ffffff" fill-opacity="1"><g transform="translate(226.862241, 297.473648)"><g><path d="M 3.890625 0.203125 C 3.410156 0.203125 3.023438 0.109375 2.734375 -0.078125 C 2.441406 -0.273438 2.226562 -0.5625 2.09375 -0.9375 C 1.957031 -1.3125 1.890625 -1.765625 1.890625 -2.296875 L 1.890625 -16.375 L 3.765625 -16.375 L 3.765625 -2.15625 C 3.765625 -1.851562 3.816406 -1.644531 3.921875 -1.53125 C 4.035156 -1.414062 4.171875 -1.359375 4.328125 -1.359375 C 4.390625 -1.359375 4.445312 -1.359375 4.5 -1.359375 C 4.550781 -1.367188 4.625 -1.382812 4.71875 -1.40625 L 4.984375 0.015625 C 4.847656 0.0664062 4.691406 0.109375 4.515625 0.140625 C 4.335938 0.179688 4.128906 0.203125 3.890625 0.203125 Z M 3.890625 0.203125 "/></g></g></g><g fill="#ffffff" fill-opacity="1"><g transform="translate(232.725266, 297.473648)"><g><path d="M 6.234375 0.28125 C 5.328125 0.28125 4.476562 0.0507812 3.6875 -0.40625 C 2.894531 -0.875 2.257812 -1.539062 1.78125 -2.40625 C 1.300781 -3.28125 1.0625 -4.332031 1.0625 -5.5625 C 1.0625 -6.820312 1.300781 -7.890625 1.78125 -8.765625 C 2.257812 -9.640625 2.894531 -10.304688 3.6875 -10.765625 C 4.476562 -11.222656 5.328125 -11.453125 6.234375 -11.453125 C 7.148438 -11.453125 8 -11.222656 8.78125 -10.765625 C 9.5625 -10.304688 10.191406 -9.640625 10.671875 -8.765625 C 11.160156 -7.890625 11.40625 -6.820312 11.40625 -5.5625 C 11.40625 -4.332031 11.160156 -3.28125 10.671875 -2.40625 C 10.191406 -1.539062 9.5625 -0.875 8.78125 -0.40625 C 8 0.0507812 7.148438 0.28125 6.234375 0.28125 Z M 6.234375 -1.28125 C 6.878906 -1.28125 7.445312 -1.460938 7.9375 -1.828125 C 8.425781 -2.191406 8.800781 -2.691406 9.0625 -3.328125 C 9.320312 -3.972656 9.453125 -4.71875 9.453125 -5.5625 C 9.453125 -6.425781 9.320312 -7.179688 9.0625 -7.828125 C 8.800781 -8.484375 8.425781 -8.988281 7.9375 -9.34375 C 7.445312 -9.707031 6.878906 -9.890625 6.234375 -9.890625 C 5.585938 -9.890625 5.019531 -9.707031 4.53125 -9.34375 C 4.050781 -8.988281 3.675781 -8.484375 3.40625 -7.828125 C 3.144531 -7.179688 3.015625 -6.425781 3.015625 -5.5625 C 3.015625 -4.71875 3.144531 -3.972656 3.40625 -3.328125 C 3.675781 -2.691406 4.050781 -2.191406 4.53125 -1.828125 C 5.019531 -1.460938 5.585938 -1.28125 6.234375 -1.28125 Z M 6.234375 -1.28125 "/></g></g></g><g fill="#ffffff" fill-opacity="1"><g transform="translate(245.187068, 297.473648)"><g><path d="M 5.65625 5.15625 C 4.75 5.15625 3.945312 5.035156 3.25 4.796875 C 2.550781 4.554688 2.003906 4.210938 1.609375 3.765625 C 1.222656 3.328125 1.03125 2.785156 1.03125 2.140625 C 1.03125 1.660156 1.175781 1.203125 1.46875 0.765625 C 1.757812 0.328125 2.160156 -0.0546875 2.671875 -0.390625 L 2.671875 -0.484375 C 2.390625 -0.671875 2.148438 -0.910156 1.953125 -1.203125 C 1.765625 -1.503906 1.671875 -1.867188 1.671875 -2.296875 C 1.671875 -2.773438 1.804688 -3.191406 2.078125 -3.546875 C 2.347656 -3.898438 2.617188 -4.175781 2.890625 -4.375 L 2.890625 -4.46875 C 2.546875 -4.769531 2.21875 -5.179688 1.90625 -5.703125 C 1.601562 -6.222656 1.453125 -6.8125 1.453125 -7.46875 C 1.453125 -8.28125 1.644531 -8.984375 2.03125 -9.578125 C 2.425781 -10.179688 2.941406 -10.644531 3.578125 -10.96875 C 4.210938 -11.289062 4.90625 -11.453125 5.65625 -11.453125 C 5.96875 -11.453125 6.257812 -11.425781 6.53125 -11.375 C 6.8125 -11.320312 7.050781 -11.253906 7.25 -11.171875 L 11.125 -11.171875 L 11.125 -9.734375 L 8.8125 -9.734375 L 8.8125 -9.640625 C 9.082031 -9.390625 9.304688 -9.082031 9.484375 -8.71875 C 9.660156 -8.351562 9.75 -7.914062 9.75 -7.40625 C 9.75 -6.601562 9.5625 -5.914062 9.1875 -5.34375 C 8.820312 -4.769531 8.332031 -4.328125 7.71875 -4.015625 C 7.113281 -3.703125 6.425781 -3.546875 5.65625 -3.546875 C 5.382812 -3.546875 5.101562 -3.578125 4.8125 -3.640625 C 4.519531 -3.710938 4.242188 -3.8125 3.984375 -3.9375 C 3.796875 -3.769531 3.628906 -3.582031 3.484375 -3.375 C 3.335938 -3.175781 3.265625 -2.914062 3.265625 -2.59375 C 3.265625 -2.238281 3.40625 -1.945312 3.6875 -1.71875 C 3.96875 -1.488281 4.488281 -1.375 5.25 -1.375 L 7.40625 -1.375 C 8.707031 -1.375 9.679688 -1.160156 10.328125 -0.734375 C 10.984375 -0.316406 11.3125 0.351562 11.3125 1.28125 C 11.3125 1.976562 11.082031 2.617188 10.625 3.203125 C 10.164062 3.785156 9.507812 4.253906 8.65625 4.609375 C 7.8125 4.972656 6.8125 5.15625 5.65625 5.15625 Z M 5.65625 -4.8125 C 6.082031 -4.8125 6.476562 -4.921875 6.84375 -5.140625 C 7.207031 -5.359375 7.492188 -5.664062 7.703125 -6.0625 C 7.921875 -6.46875 8.03125 -6.9375 8.03125 -7.46875 C 8.03125 -8.300781 7.796875 -8.941406 7.328125 -9.390625 C 6.867188 -9.847656 6.3125 -10.078125 5.65625 -10.078125 C 5 -10.078125 4.4375 -9.847656 3.96875 -9.390625 C 3.507812 -8.941406 3.28125 -8.300781 3.28125 -7.46875 C 3.28125 -6.9375 3.390625 -6.46875 3.609375 -6.0625 C 3.828125 -5.664062 4.113281 -5.359375 4.46875 -5.140625 C 4.832031 -4.921875 5.226562 -4.8125 5.65625 -4.8125 Z M 5.9375 3.84375 C 6.632812 3.84375 7.25 3.734375 7.78125 3.515625 C 8.3125 3.304688 8.722656 3.023438 9.015625 2.671875 C 9.316406 2.316406 9.46875 1.945312 9.46875 1.5625 C 9.46875 1.039062 9.269531 0.679688 8.875 0.484375 C 8.488281 0.285156 7.9375 0.1875 7.21875 0.1875 L 5.296875 0.1875 C 5.078125 0.1875 4.835938 0.171875 4.578125 0.140625 C 4.328125 0.109375 4.082031 0.0625 3.84375 0 C 3.425781 0.289062 3.128906 0.597656 2.953125 0.921875 C 2.773438 1.242188 2.6875 1.566406 2.6875 1.890625 C 2.6875 2.484375 2.972656 2.957031 3.546875 3.3125 C 4.128906 3.664062 4.925781 3.84375 5.9375 3.84375 Z M 5.9375 3.84375 "/></g></g></g><g fill="#ffffff" fill-opacity="1"><g transform="translate(257.120085, 297.473648)"><g><path d="M 2.0625 4.8125 C 1.820312 4.8125 1.585938 4.785156 1.359375 4.734375 C 1.140625 4.691406 0.941406 4.640625 0.765625 4.578125 L 1.171875 3.109375 C 1.304688 3.148438 1.441406 3.179688 1.578125 3.203125 C 1.722656 3.234375 1.859375 3.25 1.984375 3.25 C 2.617188 3.25 3.140625 3.019531 3.546875 2.5625 C 3.953125 2.113281 4.273438 1.539062 4.515625 0.84375 L 4.765625 0.015625 L 0.28125 -11.171875 L 2.234375 -11.171875 L 4.515625 -4.984375 C 4.691406 -4.515625 4.875 -4.003906 5.0625 -3.453125 C 5.25 -2.898438 5.425781 -2.363281 5.59375 -1.84375 L 5.6875 -1.84375 C 5.851562 -2.363281 6.015625 -2.894531 6.171875 -3.4375 C 6.335938 -3.976562 6.488281 -4.492188 6.625 -4.984375 L 8.625 -11.171875 L 10.46875 -11.171875 L 6.25 0.921875 C 5.988281 1.660156 5.675781 2.320312 5.3125 2.90625 C 4.945312 3.5 4.503906 3.960938 3.984375 4.296875 C 3.460938 4.640625 2.820312 4.8125 2.0625 4.8125 Z M 2.0625 4.8125 "/></g></g></g><g fill="#ffffff" fill-opacity="1"><g transform="translate(267.857469, 297.473648)"><g/></g></g><g fill="#ffffff" fill-opacity="1"><g transform="translate(272.455922, 297.473648)"><g><path d="M 2.203125 0 L 2.203125 -12.953125 C 2.203125 -13.703125 2.316406 -14.351562 2.546875 -14.90625 C 2.773438 -15.46875 3.128906 -15.898438 3.609375 -16.203125 C 4.097656 -16.503906 4.71875 -16.65625 5.46875 -16.65625 C 5.8125 -16.65625 6.144531 -16.617188 6.46875 -16.546875 C 6.800781 -16.472656 7.09375 -16.382812 7.34375 -16.28125 L 6.921875 -14.90625 C 6.472656 -15.039062 6.050781 -15.109375 5.65625 -15.109375 C 5.132812 -15.109375 4.742188 -14.925781 4.484375 -14.5625 C 4.222656 -14.207031 4.09375 -13.671875 4.09375 -12.953125 L 4.09375 0 Z M 0.546875 -9.640625 L 0.546875 -11.0625 L 2.296875 -11.171875 L 6.46875 -11.171875 L 6.46875 -9.640625 Z M 0.546875 -9.640625 "/></g></g></g><g fill="#ffffff" fill-opacity="1"><g transform="translate(278.939709, 297.473648)"><g><path d="M 6.234375 0.28125 C 5.328125 0.28125 4.476562 0.0507812 3.6875 -0.40625 C 2.894531 -0.875 2.257812 -1.539062 1.78125 -2.40625 C 1.300781 -3.28125 1.0625 -4.332031 1.0625 -5.5625 C 1.0625 -6.820312 1.300781 -7.890625 1.78125 -8.765625 C 2.257812 -9.640625 2.894531 -10.304688 3.6875 -10.765625 C 4.476562 -11.222656 5.328125 -11.453125 6.234375 -11.453125 C 7.148438 -11.453125 8 -11.222656 8.78125 -10.765625 C 9.5625 -10.304688 10.191406 -9.640625 10.671875 -8.765625 C 11.160156 -7.890625 11.40625 -6.820312 11.40625 -5.5625 C 11.40625 -4.332031 11.160156 -3.28125 10.671875 -2.40625 C 10.191406 -1.539062 9.5625 -0.875 8.78125 -0.40625 C 8 0.0507812 7.148438 0.28125 6.234375 0.28125 Z M 6.234375 -1.28125 C 6.878906 -1.28125 7.445312 -1.460938 7.9375 -1.828125 C 8.425781 -2.191406 8.800781 -2.691406 9.0625 -3.328125 C 9.320312 -3.972656 9.453125 -4.71875 9.453125 -5.5625 C 9.453125 -6.425781 9.320312 -7.179688 9.0625 -7.828125 C 8.800781 -8.484375 8.425781 -8.988281 7.9375 -9.34375 C 7.445312 -9.707031 6.878906 -9.890625 6.234375 -9.890625 C 5.585938 -9.890625 5.019531 -9.707031 4.53125 -9.34375 C 4.050781 -8.988281 3.675781 -8.484375 3.40625 -7.828125 C 3.144531 -7.179688 3.015625 -6.425781 3.015625 -5.5625 C 3.015625 -4.71875 3.144531 -3.972656 3.40625 -3.328125 C 3.675781 -2.691406 4.050781 -2.191406 4.53125 -1.828125 C 5.019531 -1.460938 5.585938 -1.28125 6.234375 -1.28125 Z M 6.234375 -1.28125 "/></g></g></g><g fill="#ffffff" fill-opacity="1"><g transform="translate(291.401512, 297.473648)"><g><path d="M 1.890625 0 L 1.890625 -11.171875 L 3.453125 -11.171875 L 3.609375 -9.15625 L 3.6875 -9.15625 C 4.050781 -9.863281 4.507812 -10.421875 5.0625 -10.828125 C 5.613281 -11.242188 6.210938 -11.453125 6.859375 -11.453125 C 7.097656 -11.453125 7.3125 -11.4375 7.5 -11.40625 C 7.6875 -11.375 7.867188 -11.3125 8.046875 -11.21875 L 7.640625 -9.609375 C 7.472656 -9.660156 7.316406 -9.695312 7.171875 -9.71875 C 7.023438 -9.738281 6.832031 -9.75 6.59375 -9.75 C 6.125 -9.75 5.628906 -9.554688 5.109375 -9.171875 C 4.597656 -8.796875 4.148438 -8.128906 3.765625 -7.171875 L 3.765625 0 Z M 1.890625 0 "/></g></g></g><g fill="#ffffff" fill-opacity="1"><g transform="translate(299.379828, 297.473648)"><g/></g></g><g fill="#ffffff" fill-opacity="1"><g transform="translate(303.978282, 297.473648)"><g><path d="M 2.0625 0 L 2.0625 -15.09375 L 6.5625 -15.09375 C 7.570312 -15.09375 8.46875 -14.96875 9.25 -14.71875 C 10.03125 -14.476562 10.640625 -14.082031 11.078125 -13.53125 C 11.515625 -12.988281 11.734375 -12.28125 11.734375 -11.40625 C 11.734375 -10.625 11.546875 -9.9375 11.171875 -9.34375 C 10.796875 -8.757812 10.242188 -8.351562 9.515625 -8.125 L 9.515625 -8.03125 C 10.472656 -7.863281 11.226562 -7.484375 11.78125 -6.890625 C 12.332031 -6.296875 12.609375 -5.492188 12.609375 -4.484375 C 12.609375 -3.472656 12.363281 -2.632812 11.875 -1.96875 C 11.394531 -1.3125 10.722656 -0.816406 9.859375 -0.484375 C 9.003906 -0.160156 8.007812 0 6.875 0 Z M 3.984375 -8.671875 L 6.203125 -8.671875 C 7.492188 -8.671875 8.421875 -8.890625 8.984375 -9.328125 C 9.554688 -9.773438 9.84375 -10.382812 9.84375 -11.15625 C 9.84375 -12.039062 9.539062 -12.660156 8.9375 -13.015625 C 8.34375 -13.378906 7.460938 -13.5625 6.296875 -13.5625 L 3.984375 -13.5625 Z M 3.984375 -1.515625 L 6.59375 -1.515625 C 7.90625 -1.515625 8.921875 -1.753906 9.640625 -2.234375 C 10.359375 -2.722656 10.71875 -3.472656 10.71875 -4.484375 C 10.71875 -5.421875 10.363281 -6.109375 9.65625 -6.546875 C 8.957031 -6.984375 7.9375 -7.203125 6.59375 -7.203125 L 3.984375 -7.203125 Z M 3.984375 -1.515625 "/></g></g></g><g fill="#ffffff" fill-opacity="1"><g transform="translate(317.497724, 297.473648)"><g><path d="M 5.15625 0.28125 C 3.96875 0.28125 3.101562 -0.0859375 2.5625 -0.828125 C 2.019531 -1.578125 1.75 -2.664062 1.75 -4.09375 L 1.75 -11.171875 L 3.640625 -11.171875 L 3.640625 -4.34375 C 3.640625 -3.300781 3.800781 -2.546875 4.125 -2.078125 C 4.457031 -1.609375 4.992188 -1.375 5.734375 -1.375 C 6.296875 -1.375 6.800781 -1.523438 7.25 -1.828125 C 7.707031 -2.128906 8.203125 -2.601562 8.734375 -3.25 L 8.734375 -11.171875 L 10.625 -11.171875 L 10.625 0 L 9.0625 0 L 8.90625 -1.75 L 8.828125 -1.75 C 8.328125 -1.132812 7.78125 -0.640625 7.1875 -0.265625 C 6.59375 0.0976562 5.914062 0.28125 5.15625 0.28125 Z M 5.15625 0.28125 "/></g></g></g><g fill="#ffffff" fill-opacity="1"><g transform="translate(330.005509, 297.473648)"><g><path d="M 4.8125 0.28125 C 4 0.28125 3.226562 0.140625 2.5 -0.140625 C 1.769531 -0.429688 1.148438 -0.828125 0.640625 -1.328125 L 1.515625 -2.4375 C 2.003906 -2.039062 2.515625 -1.734375 3.046875 -1.515625 C 3.578125 -1.304688 4.1875 -1.203125 4.875 -1.203125 C 5.613281 -1.203125 6.164062 -1.375 6.53125 -1.71875 C 6.894531 -2.0625 7.078125 -2.46875 7.078125 -2.9375 C 7.078125 -3.320312 6.953125 -3.640625 6.703125 -3.890625 C 6.453125 -4.148438 6.140625 -4.367188 5.765625 -4.546875 C 5.390625 -4.722656 4.984375 -4.882812 4.546875 -5.03125 C 3.992188 -5.238281 3.460938 -5.472656 2.953125 -5.734375 C 2.453125 -6.003906 2.046875 -6.34375 1.734375 -6.75 C 1.421875 -7.15625 1.265625 -7.664062 1.265625 -8.28125 C 1.265625 -9.1875 1.601562 -9.941406 2.28125 -10.546875 C 2.96875 -11.148438 3.914062 -11.453125 5.125 -11.453125 C 5.8125 -11.453125 6.453125 -11.332031 7.046875 -11.09375 C 7.648438 -10.851562 8.171875 -10.550781 8.609375 -10.1875 L 7.734375 -9.109375 C 7.328125 -9.378906 6.914062 -9.59375 6.5 -9.75 C 6.09375 -9.90625 5.632812 -9.984375 5.125 -9.984375 C 4.425781 -9.984375 3.910156 -9.820312 3.578125 -9.5 C 3.242188 -9.175781 3.078125 -8.800781 3.078125 -8.375 C 3.078125 -8.03125 3.175781 -7.75 3.375 -7.53125 C 3.582031 -7.3125 3.863281 -7.113281 4.21875 -6.9375 C 4.582031 -6.769531 4.992188 -6.613281 5.453125 -6.46875 C 6.035156 -6.25 6.585938 -6.003906 7.109375 -5.734375 C 7.640625 -5.472656 8.070312 -5.128906 8.40625 -4.703125 C 8.738281 -4.285156 8.90625 -3.738281 8.90625 -3.0625 C 8.90625 -2.445312 8.742188 -1.890625 8.421875 -1.390625 C 8.109375 -0.890625 7.648438 -0.484375 7.046875 -0.171875 C 6.441406 0.128906 5.695312 0.28125 4.8125 0.28125 Z M 4.8125 0.28125 "/></g></g></g><g fill="#ffffff" fill-opacity="1"><g transform="translate(339.639259, 297.473648)"><g><path d="M 1.890625 0 L 1.890625 -11.171875 L 3.765625 -11.171875 L 3.765625 0 Z M 2.828125 -13.484375 C 2.460938 -13.484375 2.160156 -13.597656 1.921875 -13.828125 C 1.679688 -14.054688 1.5625 -14.351562 1.5625 -14.71875 C 1.5625 -15.082031 1.679688 -15.378906 1.921875 -15.609375 C 2.160156 -15.847656 2.460938 -15.96875 2.828125 -15.96875 C 3.191406 -15.96875 3.492188 -15.847656 3.734375 -15.609375 C 3.972656 -15.378906 4.09375 -15.082031 4.09375 -14.71875 C 4.09375 -14.351562 3.972656 -14.054688 3.734375 -13.828125 C 3.492188 -13.597656 3.191406 -13.484375 2.828125 -13.484375 Z M 2.828125 -13.484375 "/></g></g></g><g fill="#ffffff" fill-opacity="1"><g transform="translate(345.295352, 297.473648)"><g><path d="M 1.890625 0 L 1.890625 -11.171875 L 3.453125 -11.171875 L 3.609375 -9.5625 L 3.6875 -9.5625 C 4.21875 -10.101562 4.78125 -10.550781 5.375 -10.90625 C 5.976562 -11.269531 6.660156 -11.453125 7.421875 -11.453125 C 8.609375 -11.453125 9.472656 -11.078125 10.015625 -10.328125 C 10.554688 -9.585938 10.828125 -8.503906 10.828125 -7.078125 L 10.828125 0 L 8.953125 0 L 8.953125 -6.828125 C 8.953125 -7.890625 8.785156 -8.65625 8.453125 -9.125 C 8.117188 -9.59375 7.578125 -9.828125 6.828125 -9.828125 C 6.265625 -9.828125 5.753906 -9.679688 5.296875 -9.390625 C 4.847656 -9.097656 4.335938 -8.664062 3.765625 -8.09375 L 3.765625 0 Z M 1.890625 0 "/></g></g></g><g fill="#ffffff" fill-opacity="1"><g transform="translate(357.872111, 297.473648)"><g><path d="M 6.421875 0.28125 C 5.421875 0.28125 4.507812 0.046875 3.6875 -0.421875 C 2.875 -0.890625 2.226562 -1.554688 1.75 -2.421875 C 1.269531 -3.285156 1.03125 -4.34375 1.03125 -5.59375 C 1.03125 -6.800781 1.273438 -7.84375 1.765625 -8.71875 C 2.253906 -9.59375 2.882812 -10.265625 3.65625 -10.734375 C 4.425781 -11.210938 5.238281 -11.453125 6.09375 -11.453125 C 7.039062 -11.453125 7.847656 -11.234375 8.515625 -10.796875 C 9.179688 -10.359375 9.679688 -9.75 10.015625 -8.96875 C 10.359375 -8.1875 10.53125 -7.265625 10.53125 -6.203125 C 10.53125 -6.003906 10.523438 -5.8125 10.515625 -5.625 C 10.515625 -5.445312 10.488281 -5.265625 10.4375 -5.078125 L 2.390625 -5.078125 L 2.390625 -6.578125 L 8.828125 -6.578125 C 8.828125 -7.648438 8.59375 -8.472656 8.125 -9.046875 C 7.65625 -9.617188 6.988281 -9.90625 6.125 -9.90625 C 5.613281 -9.90625 5.113281 -9.765625 4.625 -9.484375 C 4.132812 -9.203125 3.726562 -8.742188 3.40625 -8.109375 C 3.09375 -7.484375 2.9375 -6.648438 2.9375 -5.609375 C 2.9375 -4.660156 3.101562 -3.863281 3.4375 -3.21875 C 3.769531 -2.570312 4.21875 -2.082031 4.78125 -1.75 C 5.351562 -1.425781 5.972656 -1.265625 6.640625 -1.265625 C 7.179688 -1.265625 7.6875 -1.335938 8.15625 -1.484375 C 8.625 -1.640625 9.050781 -1.847656 9.4375 -2.109375 L 10.125 -0.875 C 9.632812 -0.539062 9.082031 -0.265625 8.46875 -0.046875 C 7.863281 0.171875 7.179688 0.28125 6.421875 0.28125 Z M 6.421875 0.28125 "/></g></g></g><g fill="#ffffff" fill-opacity="1"><g transform="translate(369.276285, 297.473648)"><g><path d="M 4.8125 0.28125 C 4 0.28125 3.226562 0.140625 2.5 -0.140625 C 1.769531 -0.429688 1.148438 -0.828125 0.640625 -1.328125 L 1.515625 -2.4375 C 2.003906 -2.039062 2.515625 -1.734375 3.046875 -1.515625 C 3.578125 -1.304688 4.1875 -1.203125 4.875 -1.203125 C 5.613281 -1.203125 6.164062 -1.375 6.53125 -1.71875 C 6.894531 -2.0625 7.078125 -2.46875 7.078125 -2.9375 C 7.078125 -3.320312 6.953125 -3.640625 6.703125 -3.890625 C 6.453125 -4.148438 6.140625 -4.367188 5.765625 -4.546875 C 5.390625 -4.722656 4.984375 -4.882812 4.546875 -5.03125 C 3.992188 -5.238281 3.460938 -5.472656 2.953125 -5.734375 C 2.453125 -6.003906 2.046875 -6.34375 1.734375 -6.75 C 1.421875 -7.15625 1.265625 -7.664062 1.265625 -8.28125 C 1.265625 -9.1875 1.601562 -9.941406 2.28125 -10.546875 C 2.96875 -11.148438 3.914062 -11.453125 5.125 -11.453125 C 5.8125 -11.453125 6.453125 -11.332031 7.046875 -11.09375 C 7.648438 -10.851562 8.171875 -10.550781 8.609375 -10.1875 L 7.734375 -9.109375 C 7.328125 -9.378906 6.914062 -9.59375 6.5 -9.75 C 6.09375 -9.90625 5.632812 -9.984375 5.125 -9.984375 C 4.425781 -9.984375 3.910156 -9.820312 3.578125 -9.5 C 3.242188 -9.175781 3.078125 -8.800781 3.078125 -8.375 C 3.078125 -8.03125 3.175781 -7.75 3.375 -7.53125 C 3.582031 -7.3125 3.863281 -7.113281 4.21875 -6.9375 C 4.582031 -6.769531 4.992188 -6.613281 5.453125 -6.46875 C 6.035156 -6.25 6.585938 -6.003906 7.109375 -5.734375 C 7.640625 -5.472656 8.070312 -5.128906 8.40625 -4.703125 C 8.738281 -4.285156 8.90625 -3.738281 8.90625 -3.0625 C 8.90625 -2.445312 8.742188 -1.890625 8.421875 -1.390625 C 8.109375 -0.890625 7.648438 -0.484375 7.046875 -0.171875 C 6.441406 0.128906 5.695312 0.28125 4.8125 0.28125 Z M 4.8125 0.28125 "/></g></g></g><g fill="#ffffff" fill-opacity="1"><g transform="translate(378.910012, 297.473648)"><g><path d="M 4.8125 0.28125 C 4 0.28125 3.226562 0.140625 2.5 -0.140625 C 1.769531 -0.429688 1.148438 -0.828125 0.640625 -1.328125 L 1.515625 -2.4375 C 2.003906 -2.039062 2.515625 -1.734375 3.046875 -1.515625 C 3.578125 -1.304688 4.1875 -1.203125 4.875 -1.203125 C 5.613281 -1.203125 6.164062 -1.375 6.53125 -1.71875 C 6.894531 -2.0625 7.078125 -2.46875 7.078125 -2.9375 C 7.078125 -3.320312 6.953125 -3.640625 6.703125 -3.890625 C 6.453125 -4.148438 6.140625 -4.367188 5.765625 -4.546875 C 5.390625 -4.722656 4.984375 -4.882812 4.546875 -5.03125 C 3.992188 -5.238281 3.460938 -5.472656 2.953125 -5.734375 C 2.453125 -6.003906 2.046875 -6.34375 1.734375 -6.75 C 1.421875 -7.15625 1.265625 -7.664062 1.265625 -8.28125 C 1.265625 -9.1875 1.601562 -9.941406 2.28125 -10.546875 C 2.96875 -11.148438 3.914062 -11.453125 5.125 -11.453125 C 5.8125 -11.453125 6.453125 -11.332031 7.046875 -11.09375 C 7.648438 -10.851562 8.171875 -10.550781 8.609375 -10.1875 L 7.734375 -9.109375 C 7.328125 -9.378906 6.914062 -9.59375 6.5 -9.75 C 6.09375 -9.90625 5.632812 -9.984375 5.125 -9.984375 C 4.425781 -9.984375 3.910156 -9.820312 3.578125 -9.5 C 3.242188 -9.175781 3.078125 -8.800781 3.078125 -8.375 C 3.078125 -8.03125 3.175781 -7.75 3.375 -7.53125 C 3.582031 -7.3125 3.863281 -7.113281 4.21875 -6.9375 C 4.582031 -6.769531 4.992188 -6.613281 5.453125 -6.46875 C 6.035156 -6.25 6.585938 -6.003906 7.109375 -5.734375 C 7.640625 -5.472656 8.070312 -5.128906 8.40625 -4.703125 C 8.738281 -4.285156 8.90625 -3.738281 8.90625 -3.0625 C 8.90625 -2.445312 8.742188 -1.890625 8.421875 -1.390625 C 8.109375 -0.890625 7.648438 -0.484375 7.046875 -0.171875 C 6.441406 0.128906 5.695312 0.28125 4.8125 0.28125 Z M 4.8125 0.28125 "/></g></g></g></svg>