<svg xmlns="http://www.w3.org/2000/svg" xmlns:xlink="http://www.w3.org/1999/xlink" width="600" zoomAndPan="magnify" viewBox="0 0 450 449.999984" height="600" preserveAspectRatio="xMidYMid meet" version="1.0"><defs><g/><clipPath id="318e324ca6"><rect x="0" width="395" y="0" height="186"/></clipPath></defs><rect x="-45" width="540" fill="#ffffff" y="-44.999998" height="539.99998" fill-opacity="1"/><rect x="-45" width="540" fill="#ffffff" y="-44.999998" height="539.99998" fill-opacity="1"/><g transform="matrix(1, 0, 0, 1, 29, 132)"><g clip-path="url(#318e324ca6)"><g fill="#1f3a5f" fill-opacity="1"><g transform="translate(0.597478, 133.10262)"><g><path d="M 26.4375 0 L 26.4375 -68.4375 L 3.234375 -68.4375 L 3.234375 -84.515625 L 68.828125 -84.515625 L 68.828125 -68.4375 L 45.625 -68.4375 L 45.625 0 Z M 26.4375 0 "/></g></g></g><g fill="#1f3a5f" fill-opacity="1"><g transform="translate(74.609217, 133.10262)"><g><path d="M 43.296875 1.5625 C 37.765625 1.5625 32.898438 0.804688 28.703125 -0.703125 C 24.515625 -2.222656 20.992188 -4.601562 18.140625 -7.84375 C 15.296875 -11.082031 13.140625 -15.207031 11.671875 -20.21875 C 10.203125 -25.226562 9.46875 -31.191406 9.46875 -38.109375 L 9.46875 -84.515625 L 28.640625 -84.515625 L 28.640625 -36.171875 C 28.640625 -30.898438 29.203125 -26.726562 30.328125 -23.65625 C 31.453125 -20.59375 33.09375 -18.367188 35.25 -16.984375 C 37.414062 -15.597656 40.097656 -14.90625 43.296875 -14.90625 C 46.410156 -14.90625 49.085938 -15.597656 51.328125 -16.984375 C 53.578125 -18.367188 55.285156 -20.59375 56.453125 -23.65625 C 57.617188 -26.726562 58.203125 -30.898438 58.203125 -36.171875 L 58.203125 -84.515625 L 76.609375 -84.515625 L 76.609375 -38.109375 C 76.609375 -31.191406 75.894531 -25.226562 74.46875 -20.21875 C 73.039062 -15.207031 70.921875 -11.082031 68.109375 -7.84375 C 65.304688 -4.601562 61.832031 -2.222656 57.6875 -0.703125 C 53.539062 0.804688 48.742188 1.5625 43.296875 1.5625 Z M 43.296875 1.5625 "/></g></g></g><g fill="#1f3a5f" fill-opacity="1"><g transform="translate(161.193738, 133.10262)"><g><path d="M -0.78125 0 L 25.671875 -84.515625 L 48.484375 -84.515625 L 75.046875 0 L 54.828125 0 L 43.8125 -42.78125 C 42.601562 -47.007812 41.4375 -51.5 40.3125 -56.25 C 39.1875 -61.007812 38.0625 -65.59375 36.9375 -70 L 36.421875 -70 C 35.472656 -65.59375 34.4375 -61.007812 33.3125 -56.25 C 32.1875 -51.5 31.019531 -47.007812 29.8125 -42.78125 L 18.671875 0 Z M 16.59375 -20.09375 L 16.59375 -35 L 57.296875 -35 L 57.296875 -20.09375 Z M 16.59375 -20.09375 "/></g></g></g><g fill="#1f3a5f" fill-opacity="1"><g transform="translate(237.408976, 133.10262)"><g><path d="M 9.984375 0 L 9.984375 -84.515625 L 29.03125 -84.515625 L 29.03125 0 Z M 9.984375 0 "/></g></g></g><g fill="#1f3a5f" fill-opacity="1"><g transform="translate(278.368249, 133.10262)"><g><path d="M 26.4375 0 L 26.4375 -68.4375 L 3.234375 -68.4375 L 3.234375 -84.515625 L 68.828125 -84.515625 L 68.828125 -68.4375 L 45.625 -68.4375 L 45.625 0 Z M 26.4375 0 "/></g></g></g><g fill="#1f3a5f" fill-opacity="1"><g transform="translate(352.379977, 133.10262)"><g><path d="M 9.984375 0 L 9.984375 -84.515625 L 29.03125 -84.515625 L 29.03125 0 Z M 9.984375 0 "/></g></g></g></g></g></svg>